<?xml version="1.0" encoding="UTF-8"?>
<svg xmlns="http://www.w3.org/2000/svg" id="outline" viewBox="0 0 512 512" width="512" height="512" fill="#5177ff">
  <path
      d="M441.603,230.04443a17.42468,17.42468,0,0,0-14.5083-3.62207L408,230.2417v-4.02588a18.21579,18.21579,0,0,0-33.83594-9.37158L354.169,250.169l-32.92872,19.75732L287.0293,235.71582A39.73644,39.73644,0,0,0,258.74512,224H214.98743A31.94764,31.94764,0,0,0,216,216V193.88818l5.78857-11.57666A20.94437,20.94437,0,0,0,203.05566,152H184a32.036,32.036,0,0,0-32,32v32a31.94764,31.94764,0,0,0,1.01257,8H105.126a39.91846,39.91846,0,0,0-33.28174,17.812L30.85889,303.28955a88.47291,88.47291,0,0,0-.80762,96.918l53.65381,83.46094a26.85124,26.85124,0,0,0,37.48144,7.82177l19.251-12.834a7.99931,7.99931,0,0,0,2.21875-11.09375l-10.97314-16.46,7.89453-3.94727A7.99924,7.99924,0,0,0,144,440v-8a8.00011,8.00011,0,0,0-5.47021-7.58936L120,418.23389V400H248v96h16V305.08008l21.83789,18.19824a54.88447,54.88447,0,0,0,67.03857,2.498l43.77344-31.2666q.24243-.17286.47168-.36377l44.59033-37.1587a17.47822,17.47822,0,0,0-.10888-26.94287ZM152,240h10.86768a32.17766,32.17766,0,0,0,4.31494,3.20874L152,255.355Zm32-8a16.01833,16.01833,0,0,1-16-16v-4.68652L179.31348,200H200v16A16.01833,16.01833,0,0,1,184,232Zm-1.75366,48h3.50732l13.38648,53.5459L184,348.686,168.85986,333.5459Zm4.80957-16h-6.11182l-4.03937-8.07861L184,250.24512l7.09528,5.67627Zm13.76147-20.79126A32.17766,32.17766,0,0,0,205.13232,240H216v15.355ZM184,168h19.05566a4.94417,4.94417,0,0,1,4.42237,7.15527L203.05585,184H176a7.99877,7.99877,0,0,0-5.65674,2.34326L168,188.68652V184A16.01833,16.01833,0,0,1,184,168ZM124.74756,436.68213l-8.3252,4.1626a7.99968,7.99968,0,0,0-3.07861,11.59277l11.562,17.34375-12.59424,8.39648a10.8517,10.8517,0,0,1-15.14746-3.16162l-21.38-33.25757,26.949-17.96606,2.27375,4.09277a7.99966,7.99966,0,0,0,4.46337,3.70411ZM104,393.127,81.28467,352.23926,104,315.89453Zm239.57666-80.37011a38.88467,38.88467,0,0,1-47.49561-1.77L261.12158,281.854A8.00032,8.00032,0,0,0,248,288v96H120V288a8.00021,8.00021,0,0,0-14.78418-4.24023l-40,64a8.00074,8.00074,0,0,0-.209,8.12548L94.9375,409.7605,67.13092,428.2981,43.51025,391.55518a72.47333,72.47333,0,0,1,.66114-79.39063L85.15723,250.687A23.95036,23.95036,0,0,1,105.126,240H136v32a8.00011,8.00011,0,0,0,12.99756,6.24707l15.12982-12.10388,3.39362,6.78747-15.28223,61.12891a7.99893,7.99893,0,0,0,2.10449,7.59717l24,24a7.99945,7.99945,0,0,0,11.31348,0l24-24a7.99893,7.99893,0,0,0,2.10449-7.59717L200.479,272.93066l3.39362-6.78747,15.12982,12.10388A8.00013,8.00013,0,0,0,232,272V240h26.74512a23.84457,23.84457,0,0,1,16.9707,7.0293l38.62744,38.62744a8.0008,8.0008,0,0,0,9.77246,1.20312l34.64417-20.7865,20.90576,20.90577Zm87.8916-68.061-38.97742,32.48157-22.41748-22.41748,17.81043-29.68421A2.21608,2.21608,0,0,1,392,226.21582V240a7.99987,7.99987,0,0,0,9.56885,7.84473l28.66357-5.73291A1.47779,1.47779,0,0,1,432,243.561,1.47229,1.47229,0,0,1,431.46826,244.6958Z"/>
  <path
      d="M194.05322,432.26807a7.99576,7.99576,0,0,0-8.999,3.76269l-32,56,13.8916,7.93848L184,470.12451V496h16V440A8.00024,8.00024,0,0,0,194.05322,432.26807Z"/>
  <path
      d="M472,16H264a24.02687,24.02687,0,0,0-24,24V176a24.02687,24.02687,0,0,0,24,24h32v24a8.00011,8.00011,0,0,0,12.99756,6.24707L346.80615,200H472a24.02687,24.02687,0,0,0,24-24V40A24.02687,24.02687,0,0,0,472,16Zm8,160a8.00917,8.00917,0,0,1-8,8H344a8.00033,8.00033,0,0,0-4.99756,1.75293L312,207.355V192a7.99977,7.99977,0,0,0-8-8H264a8.00917,8.00917,0,0,1-8-8V40a8.00917,8.00917,0,0,1,8-8H472a8.00917,8.00917,0,0,1,8,8Z"/>
  <path
      d="M290.34326,74.34326l11.31348,11.31348L312,75.31348V88H288V64h8V48H280a7.99977,7.99977,0,0,0-8,8V96a7.99977,7.99977,0,0,0,8,8h40a7.99977,7.99977,0,0,0,8-8V59.31348l5.65674-5.65674L322.34326,42.34326Z"/>
  <path
      d="M322.34326,106.34326l-32,32,11.31348,11.31348L312,139.31348V152H288V128h8V112H280a7.99977,7.99977,0,0,0-8,8v40a7.99977,7.99977,0,0,0,8,8h40a7.99977,7.99977,0,0,0,8-8V123.31348l5.65674-5.65674Z"/>
  <rect x="344" y="56" width="24" height="16"/>
  <rect x="384" y="56" width="80" height="16"/>
  <rect x="344" y="80" width="64" height="16"/>
  <rect x="344" y="120" width="80" height="16"/>
  <rect x="440" y="120" width="24" height="16"/>
  <rect x="392" y="144" width="32" height="16"/>
  <rect x="344" y="144" width="32" height="16"/>
</svg>
