<svg id="outline" height="512" viewBox="0 0 512 512" width="512" xmlns="http://www.w3.org/2000/svg" fill="white">
  <path
      d="m207.99609 199.99463v-16h-20.68554a19.19426 19.19426 0 0 1 -13.65821-5.65723l-11.3125 11.31446a35.0858 35.0858 0 0 0 24.97071 10.34277z"/>
  <circle cx="175.997" cy="151.995" r="8"/>
  <circle cx="207.997" cy="151.995" r="8"/>
  <path
      d="m366.86426 430.13379-43.458-24.833 9.18262-13.77246a20.282 20.282 0 0 0 -16.874-31.53369 30.86775 30.86775 0 0 0 -9.77636 1.58642l-43.24024 14.41358h-56.02543l-14.22754-78.25147 9.76441-14.647 10.81567 4.32617a7.99953 7.99953 0 0 0 10.9707-7.42773v-56.86149a55.80487 55.80487 0 0 0 16-39.13849v-60.26123a47.88649 47.88649 0 0 0 16-35.73877v-16a8.00008 8.00008 0 0 0 -8-8l-82.60547-.001h-.001a48.72169 48.72169 0 0 0 -46.27832 33.35987l-.19336.57812a49.64247 49.64247 0 0 0 5.76953 43.52148l3.30859 4.96393v61.57758h-18.542a93.56339 93.56339 0 0 0 -93.458 93.45752v194.5425h16v-142.26863c.15064.223.29175.45105.44434.673l61.043 88.789a47.99012 47.99012 0 0 0 39.55469 20.80664h106.958v32h16v-32h101.876a18.12456 18.12456 0 0 0 8.99219-33.86084zm-192.19141-126.13916h2.64649l13.09082 72h-28.82816zm5.042-16h-7.4375l-7.314-10.97095 11.03271-4.41308 11.03272 4.41308zm-3.71875-36.49658-13.00537-15.60627a55.68062 55.68062 0 0 0 21.00537 4.10285c.54346 0 1.08081-.0257 1.62061-.04114zm-32-13.40723 18.80469 22.56567-18.80469 7.52173zm45.19532 22.56567 18.80468-22.56561v30.08734zm-55.09376-157.66674.19336-.57862a32.73831 32.73831 0 0 1 31.0996-22.41748l74.60547.001v8a32.03635 32.03635 0 0 1 -32 32h-14.11132a20.83105 20.83105 0 0 1 -18.7334-11.57813 8 8 0 0 0 -12.8125-2.07861l-25.0791 25.07959a33.74734 33.74734 0 0 1 -3.16211-28.42775zm9.89843 44.31884 22.94727-22.94726a36.72822 36.72822 0 0 0 26.94141 11.6333h14.11132a47.772 47.772 0 0 0 16-2.75214v50.75214a40 40 0 0 1 -80 0zm-112 154.14356a77.54506 77.54506 0 0 1 77.458-77.45752h18.542v56a7.99948 7.99948 0 0 0 10.97071 7.42773l10.81567-4.32617 9.76441 14.647-11.8794 65.33667-37.01514-55.5227-13.3125 8.875 21.50977 32.26484-47.55761 33.96975-25.666-37.33228a77.12783 77.12783 0 0 1 -13.62991-43.88232zm325.876 146.54248h-224.834a31.9905 31.9905 0 0 1 -26.36909-13.87109l-26.31133-38.27076 47.37133-33.83667 17.61084 26.416a7.99945 7.99945 0 0 0 6.65625 3.5625h112a8.00176 8.00176 0 0 0 2.53028-.41065l44.47168-14.82421a14.8971 14.8971 0 0 1 4.71679-.76514 4.28172 4.28172 0 0 1 3.5625 6.65625l-13.9375 20.90625a7.999 7.999 0 0 0 2.6875 11.3833l50.89844 29.085a2.12465 2.12465 0 0 1 -1.05371 3.96924z"/>
  <path
      d="m487.99609 247.99463h-240a8.00008 8.00008 0 0 0 -8 8v88h16v-80h224v144.00537h-103.99609v16h111.99609a8.00008 8.00008 0 0 0 8-8v-160.00537a8.00008 8.00008 0 0 0 -8-8z"/>
  <path
      d="m327.99609 343.99463a8.00008 8.00008 0 0 0 8-8v-48a8.00008 8.00008 0 0 0 -8-8h-48a8.00008 8.00008 0 0 0 -8 8v48a8.00008 8.00008 0 0 0 8 8zm-8-48v32h-32v-8h16v-16h-16v-8z"/>
  <path d="m351.996 327.995h24v16h-24z"/>
  <path d="m391.996 327.995h24v16h-24z"/>
  <path d="m431.996 327.995h24v16h-24z"/>
  <path d="m407.996 279.995h16v16h-16z"/>
  <path d="m439.996 279.995h16v16h-16z"/>
  <path d="m352 376h71.996v16h-71.996z"/>
  <path d="m439.996 376h16v16h-16z"/>
  <path d="m335.99609 31.99463h128v200h16v-208a8.00008 8.00008 0 0 0 -8-8h-144a8.00008 8.00008 0 0 0 -8 8v136h16z"/>
  <path d="m391.996 87.995h16v24h-16z"/>
  <path
      d="m447.99609 231.99463v-160a8.00008 8.00008 0 0 0 -8-8 8.00917 8.00917 0 0 1 -8-8 8.00008 8.00008 0 0 0 -8-8h-48a8.00008 8.00008 0 0 0 -8 8 8.00916 8.00916 0 0 1 -8 8 8.00008 8.00008 0 0 0 -8 8v96h16v-89.37109a24.11692 24.11692 0 0 0 14.62891-14.62891h34.74219a24.1169 24.1169 0 0 0 14.6289 14.62891v153.37109z"/>
  <path d="m391.996 207.995h16v24h-16z"/>
  <path
      d="m423.99609 159.99463a24 24 0 1 0 -24 24 24.02718 24.02718 0 0 0 24-24zm-24 8a8 8 0 1 1 8-8 8.00917 8.00917 0 0 1 -8 8z"/>
  <path d="m287.996 111.995h16v56h-16z"/>
  <path d="m287.996 79.995h16v16h-16z"/>
  <path d="m319.99609 191.99463a40.04551 40.04551 0 0 1 40 40h16a56 56 0 0 0 -112 0h16a40.04552 40.04552 0 0 1 40-40z"/>
</svg>
