<svg xmlns="http://www.w3.org/2000/svg" width="2560" height="780.053" viewBox="0 0 2560 780.053">
  <g id="Сгруппировать_2" data-name="Сгруппировать 2" transform="translate(0 -3078.902)">
    <path id="Контур_14" data-name="Контур 14" d="M205.449,3276.16l108.593,119S578.917,3667.244,768,3640s400-96,400-96-172.437-94.3-360-128-278.985-120.594-352-200c-203.385-221.185-355.86-60.824-355.86-60.824" fill="#c3d4ff"/>
    <path id="Контур_13" data-name="Контур 13" d="M-200.329,3288.31l48.5,143.715S-28.173,3670.224,55,3718.563c65.675,76.694,530.287,102.575,1019.862,102.377,583.324-.236,1270.885,36.448,1284.531,38.007s-474.785-220.084-688.636-272.6-564.439-108.957-908.88,3.822c-536.524,193.977-675.129-408.457-962.2-511.266" transform="translate(200.329)" fill="#92aafd"/>
    <path id="Контур_11" data-name="Контур 11" d="M2553.85,3858.949H-5.94V3160.135s32.8,473.171,405.925,590.791c273.309,86.154,783,10.885,1258.932,22.409s421.07,8.264,644.793,23.688S2553.85,3858.949,2553.85,3858.949Z" transform="translate(5.94 0)" fill="#5177ff"/>
  </g>
</svg>
