<svg xmlns="http://www.w3.org/2000/svg" width="1000" height="120" viewBox="0 0 1000 120">
  <g id="Сгруппировать_3" data-name="Сгруппировать 3" transform="translate(-920)">
    <path id="Контур_14" data-name="Контур 14" d="M940.14,3341.318s-273.79-22.833-368-88c-44.655-30.889-188.633-28.217-328-28.924-154.867-.785-304-3.076-304-3.076s305.192,114.7,496,104,313.76-85.21,313.76-85.21l190.24,37.21v8h0" transform="translate(979.86 -3221.318)" fill="#ffe5ec"/>
    <path id="Контур_13" data-name="Контур 13" d="M1599.563,3149.586c-94-2-181.2-25.366-256-24-152.575,21.207-408-48-408-48l592-16s138.7.468,152,16c28.885,16.788,40,24,40,24v32S1693.563,3151.586,1599.563,3149.586Z" transform="translate(200.437 -3061.586)" fill="#ffc4d5"/>
    <path id="Контур_11" data-name="Контур 11" d="M914.06,3160.134h1000v43.982s-27.187-35.9-192-27.982-640.7,2.365-720,0S914.06,3160.134,914.06,3160.134Z" transform="translate(5.94 -3160.134)" fill="#ff3972"/>
  </g>
</svg>
