<?xml version="1.0" standalone="no"?>
<!DOCTYPE svg PUBLIC "-//W3C//DTD SVG 20010904//EN"
    "http://www.w3.org/TR/2001/REC-SVG-20010904/DTD/svg10.dtd">
<svg version="1.0" xmlns="http://www.w3.org/2000/svg"
     width="201.000000pt" height="201.000000pt" viewBox="0 0 201.000000 201.000000"
     preserveAspectRatio="xMidYMid meet">
  <metadata>
    Created by potrace 1.16, written by Peter Selinger 2001-2019
  </metadata>
  <g transform="translate(0.000000,201.000000) scale(0.100000,-0.100000)"
     fill="#FA195A" stroke="none">
    <path fill="#2F5CFE" d="M958 1880 c-386 -62 -692 -398 -720 -792 l-5 -58 188 0 187 0 12 71
c23 134 106 259 222 332 83 53 134 69 238 74 84 5 104 3 166 -19 136 -48 222
-121 288 -248 182 -346 -119 -762 -508 -702 -41 6 -95 21 -120 34 -25 12 -48
20 -50 17 -2 -2 -45 -75 -95 -162 l-90 -157 47 -24 c120 -60 230 -84 382 -84
226 -1 421 76 587 231 399 374 350 1039 -100 1346 -67 46 -200 106 -276 126
-75 19 -273 28 -353 15z"/>
    <path d="M995 1396 c-149 -47 -257 -174 -280 -329 l-7 -47 191 -2 191 -3 -90
-155 c-49 -85 -89 -161 -90 -167 -1 -33 135 -68 229 -59 130 12 260 107 319
233 23 50 27 71 27 153 0 82 -4 103 -27 153 -37 79 -78 128 -141 170 -93 62
-225 84 -322 53z"/>
    <path d="M60 880 c0 -117 54 -287 132 -417 44 -74 157 -194 233 -249 35 -24
66 -44 71 -44 9 0 156 250 162 275 2 6 -16 25 -38 40 -58 40 -125 117 -155
178 -27 57 -55 170 -55 230 l0 37 -175 0 -175 0 0 -50z"/>
    <path fill="#2F5CFE" d="M522 842 c4 -64 10 -89 38 -140 32 -60 119 -152 144 -152 13 1 217
356 208 364 -3 3 -93 6 -200 6 l-195 0 5 -78z"/>
  </g>
</svg>
