<?xml version="1.0" encoding="UTF-8"?>
<svg xmlns="http://www.w3.org/2000/svg" id="outline" viewBox="0 0 512 512" width="512" height="512" fill="#5177ff">
  <path
      d="M32,245.83936V496H48V368H216V496h16V345.394l81.919,70.21631a32.14757,32.14757,0,0,0,43.45312-1.66894l24.28467-24.28467a7.99915,7.99915,0,0,0,0-11.31348l-16.15137-16.15185.60547-.30274A17.88843,17.88843,0,0,0,358.11133,328H339.00586l-59.80615-52.33057-6.7771-28.80224A32.05171,32.05171,0,0,0,296,216V184a7.99977,7.99977,0,0,0-8-8h-8V152a7.99977,7.99977,0,0,0-8-8h-8v-8.80493a40,40,0,1,0-16,0V144h-8a8.01345,8.01345,0,0,0-1.20105.09985A39.717,39.717,0,0,0,214.65576,136h-34.009a39.76,39.76,0,0,0,3.34985-16V96.90039a38.08025,38.08025,0,0,0,16-31.01172V48a7.99977,7.99977,0,0,0-8-8H136.021A38.76989,38.76989,0,0,0,99.24072,91.03027l4.75586,14.26758V120a39.75988,39.75988,0,0,0,3.34986,16H82.55176A66.55188,66.55188,0,0,0,31.74707,245.54053ZM232,96a24,24,0,1,1,24,24A24.0275,24.0275,0,0,1,232,96ZM48,352V264.74854L85.44531,309.002a76.25389,76.25389,0,0,0,117.228-.96875L216,291.74487V352ZM256.25244,248l2.79627,11.88452-23.34925,7.783L251.791,248Zm74.47949,94.02051A7.99842,7.99842,0,0,0,336,344h22.11133a1.8885,1.8885,0,0,1,.84472,3.57764l-10.53369,5.26709a8,8,0,0,0-2.0791,12.812L364.686,384l-18.62745,18.62793a16.07327,16.07327,0,0,1-21.72656.834L232,324.32019V285.76587l30.72827-10.24268,1.48462,6.30933a7.99841,7.99841,0,0,0,2.519,4.188ZM280,216a16.01833,16.01833,0,0,1-16,16H248a8.00117,8.00117,0,0,0-6.19189,2.93408L190.29,297.90137a60.25432,60.25432,0,0,1-92.63086.76562l-14.77393-17.4602,41.45179-35.53,13.64245,15.59131a7.99961,7.99961,0,0,0,11.37207.67822l75.437-67.89307A7.98816,7.98816,0,0,1,230.13965,192H280ZM143.99707,161.32959l7.99561,4.79687L147.05591,176h-6.11182l-4.93774-9.87549ZM141.76587,192h4.46826L159.369,231.40491l-14.6908,13.22155-14.81176-16.92773ZM264,160v16H248V160Zm-32-.58691V176h-1.86035a23.95809,23.95809,0,0,0-16.05469,6.16113L172.34229,219.729l-11.70508-35.11523,5.116-10.23181,14.13111,8.4779,8.23144-13.71972L163.953,154.6438A40.146,40.146,0,0,0,168,151.97546V152h46.65576A23.81833,23.81833,0,0,1,232,159.41309ZM167.99658,120A24.02769,24.02769,0,0,1,143.999,144h-.00525a24.02769,24.02769,0,0,1-23.99719-24V107.31348L134.94336,92.3667A36.733,36.733,0,0,0,161.88525,104a38.21108,38.21108,0,0,0,6.11133-.49634ZM113.93115,73.24756A22.73633,22.73633,0,0,1,136.021,56h47.97558v9.88867A22.13617,22.13617,0,0,1,161.88525,88a20.83093,20.83093,0,0,1-18.73339-11.57764,8,8,0,0,0-12.812-2.0791L115.49268,89.18994l-1.07325-3.21924A22.73325,22.73325,0,0,1,113.93115,73.24756ZM82.55176,152H120v-.01917a40.1288,40.1288,0,0,0,4.04126,2.66358L99.88379,169.14014l8.23242,13.71972,14.13013-8.47876,5.11645,10.23267-9.70923,29.12744-23.633-27.00928-12.041,10.53614,31.82056,36.36633L72.54956,268.99194,43.96094,235.20557A50.55223,50.55223,0,0,1,82.55176,152Z"/>
  <path d="M152,496V424a8,8,0,0,0-15.31055-3.249l-32,72,14.6211,6.498L136,461.69775V496Z"/>
  <path
      d="M488,16H240a7.99977,7.99977,0,0,0-8,8V48h16V32H384v72H320v16H488a7.99977,7.99977,0,0,0,8-8V24A7.99977,7.99977,0,0,0,488,16Zm-8,88H400V32h80Z"/>
  <path
      d="M410.34326,90.34326l11.31348,11.31348,16.0022-16.0022a24.009,24.009,0,1,0-11.31348-11.31348ZM448,56a8,8,0,1,1-8,8A8.00917,8.00917,0,0,1,448,56Z"/>
  <rect x="320" y="72" width="16" height="16"/>
  <rect x="352" y="72" width="16" height="16"/>
</svg>
