<svg id="outline" height="512" viewBox="0 0 512 512" width="512" xmlns="http://www.w3.org/2000/svg" fill="#5177ff">
  <path
      d="m31.99609 439.30957 32.07715 41.24219a39.741 39.741 0 0 0 31.57422 15.44238h86.4082a31.7876 31.7876 0 0 0 22.62793-9.37305l5.7732-5.77392-1.7439 3.83642a8 8 0 0 0 7.2832 11.31055h104a8.00226 8.00226 0 0 0 7.28321-4.68945l40-88a8 8 0 0 0 -7.28321-11.31055h-56v-40h-16v40h-4.68554l-52.28418-52.28414a39.74241 39.74241 0 0 0 -28.28516-11.71582h-47.05029a31.792 31.792 0 0 0 4.30517-16v-18.85771a31.86015 31.86015 0 0 0 8.00391-21.13647v-8a8.00039 8.00039 0 0 0 -8-8h-39.93457a30.29065 30.29065 0 0 0 -27.0918 43.83594l3.02246 6.04492v6.11328a31.792 31.792 0 0 0 4.30518 16h-16.7417a67.63967 67.63967 0 0 0 -67.56348 67.56348v100.43652h16zm128-82.62988-12.68554-12.68555h12.68554zm-28.94433 3.31445h-6.11133l-3.21-6.41992 6.26562-6.26563 6.26563 6.26563zm-35.05567-3.31445v-12.68555h12.68555zm0 22.6289 13.80884-13.80883 2.00073 4.00122-5.9082 59.085-9.90137-11.55127zm31.23951-3.31445h1.521l6.3999 64h-14.3208zm24 64-7.04908-70.49314 2.00074-4.00122 13.80883 13.80883v60.68555zm56.76049 24a7.99744 7.99744 0 0 0 -5.65722 2.34375l-8.96973 8.96973a15.86466 15.86466 0 0 1 -9.373 4.55737v-23.87085a8.01516 8.01516 0 0 0 2.53028-.41016l21.46972-7.15722 14.93409 4.97851-4.813 10.58887zm21.592-25.23584-19.06176-6.354a8.00915 8.00915 0 0 0 -2.53028-.41016v-28.68652l25.92265 25.92338zm74.408 1.23584a8 8 0 1 1 -8-8 8.00916 8.00916 0 0 1 8 8zm-16-22.62378a24 24 0 1 0 16 0v-9.37622h43.57618l-32.72754 72h-86.42481l32.72754-72h26.84863zm-68.28418-66.346 40.96973 40.96973h-4.68555a8.00226 8.00226 0 0 0 -7.2832 4.68945l-7.72266 16.99024-35.33691-35.33692a8.00066 8.00066 0 0 0 -13.65723 5.65723v52.90039l-9.29785 3.09961h-6.70215v-96h26.74512a23.83861 23.83861 0 0 1 16.9707 7.03032zm-113.20214-69.2539a14.27033 14.27033 0 0 1 13.55566-9.77046h31.93457a16.01833 16.01833 0 0 1 -16 16 11.23593 11.23593 0 0 1 -8-3.31445l-2.34277-2.34278a8.003 8.003 0 0 0 -11.31446 0l-7.9873 7.98828a14.17648 14.17648 0 0 1 .1543-8.56054zm5.48632 30.22363v-4.676l8.28516-8.28589a27.11366 27.11366 0 0 0 15.71875 4.9678 31.94553 31.94553 0 0 0 7.99609-1.01172v9.00586a16 16 0 0 1 -32 0zm-32 32.137v54.23706l-9.92578-11.58007-12.14843 10.41212 48 56a7.99987 7.99987 0 0 0 6.07421 2.79394h56v24h-72.34863a23.84813 23.84813 0 0 1 -18.94531-9.26465l-33.84473-43.51465a51.55341 51.55341 0 0 1 37.13867-83.08374z"/>
  <path d="m223.996 303.994h64v32h16v-32h192v-16h-272z"/>
  <path d="m351.996 319.994h24v16h-24z"/>
  <path d="m399.996 319.994h96v16h-96z"/>
  <path d="m351.996 351.994h80v16h-80z"/>
  <path d="m447.996 351.994h24v16h-24z"/>
  <path
      d="m271.99609 271.99414v-16h8a8.00039 8.00039 0 0 0 8-8v-72a8.00039 8.00039 0 0 0 -8-8h-8v-56h-16v56h-8a8.00039 8.00039 0 0 0 -8 8v72a8.00039 8.00039 0 0 0 8 8h8v16zm-16-88h16v56h-16z"/>
  <path
      d="m399.99609 255.99414v-16h8a8.00039 8.00039 0 0 0 8-8v-72a8.00039 8.00039 0 0 0 -8-8h-8v-48h-16v48h-8a8.00039 8.00039 0 0 0 -8 8v72a8.00039 8.00039 0 0 0 8 8h8v16zm-16-88h16v56h-16z"/>
  <path
      d="m447.99609 15.99414v16h-8a8.00039 8.00039 0 0 0 -8 8v152a8.00039 8.00039 0 0 0 8 8h8v16h16v-16h8a8.00039 8.00039 0 0 0 8-8v-152a8.00039 8.00039 0 0 0 -8-8h-8v-16zm16 168h-16v-136h16z"/>
  <path
      d="m335.99609 271.99414v-48h8a8.00039 8.00039 0 0 0 8-8v-120a8.00039 8.00039 0 0 0 -8-8h-8v-16h-16v16h-8a8.00039 8.00039 0 0 0 -8 8v120a8.00039 8.00039 0 0 0 8 8h8v48zm-16-168h16v104h-16z"/>
</svg>
